{"title":"The.Private.Lives.Of.Pippa.Lee.2009.SWESUB.DVDRip.XviD.AC3-Zen_B","uid":5762390,"size":1470189976,"categoryP":"video","categoryS":"movies","magnet":"?xt=urn:btih:1b45cd70d400cfc72f08c46a60519cc007af48f9&amp;dn=The.Private.Lives.Of.Pippa.Lee.2009.SWESUB.DVDRip.XviD.AC3-Zen_B&amp;tr=udp%3A%2F%2Ftracker.openbittorrent.com%3A80&amp;tr=udp%3A%2F%2Fopen.demonii.com%3A1337&amp;tr=udp%3A%2F%2Ftracker.coppersurfer.tk%3A6969&amp;tr=udp%3A%2F%2Fexodus.desync.com%3A6969","seeders":0,"leechers":1,"uploader":"Zen_Bud","files":-1,"time":1281773542,"description":"          The.Private.Lives.Of.Pippa.Lee.2009.SWESUB.DVDRip.XviD.AC3-Zen_Bud\n\n\n\nGeneral\nComplete name                    : The.Private.Lives.Of.Pippa.Lee.2009.avi\nFormat                           : AVI\nFile size                        : 1.37 GiB\nDuration                         : 1h 34mn\nOverall bit rate                 : 2 074 Kbps\n\nVideo\n\nFormat                           : MPEG-4 Visual\nCodec ID/Hint                    : XviD\nDuration                         : 1h 34mn\nBit rate                         : 1 616 Kbps\nWidth                            : 720 pixels\nHeight                           : 576 pixels\nDisplay aspect ratio             : 16:9\nStream size                      : 1.07 GiB (78%)\nWriting library                  : XviD 1.1.2 (UTC 2006-11-01)\n\nAudio\n\nFormat                           : AC-3\nDuration                         : 1h 34mn\nBit rate                         : 448 Kbps\nChannel(s)                       : 6 channels\nChannel positions                : Front: L C R, Side: L R, LFE\nSampling rate                    : 48.0 KHz\nStream size                      : 303 MiB (22%)\n\n\n","torrent":{"xt":"urn:btih:1b45cd70d400cfc72f08c46a60519cc007af48f9","amp;dn":"The.Private.Lives.Of.Pippa.Lee.2009.SWESUB.DVDRip.XviD.AC3-Zen_B","amp;tr":["udp%3A%2F%2Ftracker.openbittorrent.com%3A80","udp%3A%2F%2Fopen.demonii.com%3A1337","udp%3A%2F%2Ftracker.coppersurfer.tk%3A6969","udp%3A%2F%2Fexodus.desync.com%3A6969"],"infoHash":"1b45cd70d400cfc72f08c46a60519cc007af48f9","infoHashBuffer":{"type":"Buffer","data":[27,69,205,112,212,0,207,199,47,8,196,106,96,81,156,192,7,175,72,249]},"announce":[],"urlList":[]}}